<svg width="18" height="18" viewBox="0 0 18 18" fill="none" xmlns="http://www.w3.org/2000/svg">
<path fill-rule="evenodd" clip-rule="evenodd" d="M12.3335 1.91666C12.3335 1.07962 11.8628 0.666656 11.0835 0.666656H6.91687C6.13756 0.666656 5.66687 1.07962 5.66687 1.91666C5.66687 2.75369 6.13756 3.16666 6.91687 3.16666L11.0835 3.16666C11.8628 3.16666 12.3335 2.75369 12.3335 1.91666ZM0.66748 5.45832C0.66748 4.37787 1.12306 3.99999 2.12581 3.99999H15.8758C16.8786 3.99999 17.3341 4.37787 17.3341 5.45832C17.3341 6.8335 16.3462 6.91666 15.2502 6.91666V13.3333C15.2502 15.5425 13.4593 17.3333 11.2502 17.3333H6.7502C4.54106 17.3333 2.7502 15.5425 2.7502 13.3333V6.91666C1.65451 6.91666 0.66748 6.83283 0.66748 5.45832ZM9.7502 7.66667C9.7502 7.25245 9.41442 6.91667 9.0002 6.91667C8.58599 6.91667 8.2502 7.25245 8.2502 7.66667L8.2502 13.6667C8.2502 14.0809 8.58599 14.4167 9.0002 14.4167C9.41442 14.4167 9.7502 14.0809 9.7502 13.6667V7.66667ZM5.30404 6.92182C5.71769 6.90014 6.07059 7.21789 6.09227 7.63154L6.40628 13.6233C6.42796 14.037 6.11021 14.3899 5.69656 14.4115C5.28292 14.4332 4.93002 14.1155 4.90834 13.7018L4.59432 7.71004C4.57264 7.2964 4.8904 6.94349 5.30404 6.92182ZM13.4062 7.71003C13.4279 7.29638 13.1101 6.94348 12.6965 6.92181C12.2828 6.90013 11.9299 7.21788 11.9082 7.63153L11.5942 13.6233C11.5725 14.0369 11.8903 14.3898 12.3039 14.4115C12.7176 14.4332 13.0705 14.1155 13.0922 13.7018L13.4062 7.71003Z" fill="#0073E6"/>
</svg>
