<svg width="76" height="12" viewBox="0 0 76 12" fill="none" xmlns="http://www.w3.org/2000/svg">
<path fill-rule="evenodd" clip-rule="evenodd" d="M21.8149 10.5999C20.3406 10.5999 19.2993 12.6523 18.1029 11.7872C16.9066 10.9221 18.5379 8.65117 18.1029 7.56977C17.6679 6.48838 15.7102 6 16.0365 4.65C16.3628 3.30001 18.7555 3.67675 19.5168 2.85305C20.2781 2.02935 20.4246 0 22.0182 0C23.6119 0 23.8548 2.28427 24.4864 2.85305C25.281 3.56861 28 3.15728 28 4.65C28 6.14273 26.0646 6.37009 25.8248 7.56977C25.585 8.76946 26.9124 10.7058 25.8248 11.5709C24.7372 12.4361 23.2893 10.5999 21.8149 10.5999Z" fill="#CFCFCF"/>
<path fill-rule="evenodd" clip-rule="evenodd" d="M5.81493 10.5999C4.34061 10.5999 3.29926 12.6523 2.10291 11.7872C0.90656 10.9221 2.53795 8.65117 2.10291 7.56977C1.66787 6.48838 -0.289791 6 0.0364866 4.65C0.362764 3.30001 2.75547 3.67675 3.51678 2.85305C4.2781 2.02935 4.4246 0 6.01824 0C7.61189 0 7.85485 2.28427 8.48644 2.85305C9.28102 3.56861 12 3.15728 12 4.65C12 6.14273 10.0646 6.37009 9.82482 7.56977C9.58504 8.76946 10.9124 10.7058 9.82482 11.5709C8.73722 12.4361 7.28926 10.5999 5.81493 10.5999Z" fill="#CFCFCF"/>
<path fill-rule="evenodd" clip-rule="evenodd" d="M37.8149 10.5999C36.3406 10.5999 35.2993 12.6523 34.1029 11.7872C32.9066 10.9221 34.5379 8.65117 34.1029 7.56977C33.6679 6.48838 31.7102 6 32.0365 4.65C32.3628 3.30001 34.7555 3.67675 35.5168 2.85305C36.2781 2.02935 36.4246 0 38.0182 0C39.6119 0 39.8548 2.28427 40.4864 2.85305C41.281 3.56861 44 3.15728 44 4.65C44 6.14273 42.0646 6.37009 41.8248 7.56977C41.585 8.76946 42.9124 10.7058 41.8248 11.5709C40.7372 12.4361 39.2893 10.5999 37.8149 10.5999Z" fill="#CFCFCF"/>
<path fill-rule="evenodd" clip-rule="evenodd" d="M53.8149 10.5999C52.3406 10.5999 51.2993 12.6523 50.1029 11.7872C48.9066 10.9221 50.5379 8.65117 50.1029 7.56977C49.6679 6.48838 47.7102 6 48.0365 4.65C48.3628 3.30001 50.7555 3.67675 51.5168 2.85305C52.2781 2.02935 52.4246 0 54.0182 0C55.6119 0 55.8548 2.28427 56.4864 2.85305C57.281 3.56861 60 3.15728 60 4.65C60 6.14273 58.0646 6.37009 57.8248 7.56977C57.585 8.76946 58.9124 10.7058 57.8248 11.5709C56.7372 12.4361 55.2893 10.5999 53.8149 10.5999Z" fill="#CFCFCF"/>
<path fill-rule="evenodd" clip-rule="evenodd" d="M69.8149 10.5999C68.3406 10.5999 67.2993 12.6523 66.1029 11.7872C64.9066 10.9221 66.5379 8.65117 66.1029 7.56977C65.6679 6.48838 63.7102 6 64.0365 4.65C64.3628 3.30001 66.7555 3.67675 67.5168 2.85305C68.2781 2.02935 68.4246 0 70.0182 0C71.6119 0 71.8548 2.28427 72.4864 2.85305C73.281 3.56861 76 3.15728 76 4.65C76 6.14273 74.0646 6.37009 73.8248 7.56977C73.585 8.76946 74.9124 10.7058 73.8248 11.5709C72.7372 12.4361 71.2893 10.5999 69.8149 10.5999Z" fill="#CFCFCF"/>
</svg>
